<?xml version="1.0" encoding="utf-8"?>
<!-- Generator: Adobe Illustrator 23.0.4, SVG Export Plug-In . SVG Version: 6.00 Build 0)  -->
<svg version="1.1" id="Layer_1" xmlns="http://www.w3.org/2000/svg" xmlns:xlink="http://www.w3.org/1999/xlink" x="0px" y="0px"
	 viewBox="0 0 1985.7 676.7" style="enable-background:new 0 0 1985.7 676.7;" xml:space="preserve">
<style type="text/css">
	.st0{fill:none;}
	.st1{font-family:'CocoGothic-Bold';}
	.st2{font-size:505px;}
	.st3{letter-spacing:-25;}
	.st4{letter-spacing:-4;}
	.st5{letter-spacing:1;}
</style>
<g>
	<path d="M56.6,394.1c16.9,14.6,33.2,28.7,47.2,40.9c-10.5,19.9-22.5,37.6-29.6,57.1c-11.1,30.2,3.9,46.3,36.5,41.5
		c36.4-5.3,69.4-21.1,94-47c27.3-28.8,27.6-54.3-2-81c-29.5-26.6-62.4-49.4-92.7-75.3c-21.4-18.3-41.9-37.9-60.7-58.8
		c-32.8-36.6-23.8-100.5,5.9-136C116.3,62.5,196,22.3,287,3.6c29.4-6,61.4-6,88.7,12c24.6,16.2,35.4,50.2,28.5,78.7
		C393.7,137,370.8,173,346,208.2c-12.8,18.1-24.4,37.1-36.7,55.6c-3.5,5.3-7.3,10.4-11.4,16.1c-18-15.1-35-29.3-53.6-44.8
		c21-27.6,42-53.9,61.6-81.3c10.9-15.3,20.5-31.8,28.5-48.8c10-21.2-2.7-38.1-26.4-36.6c-25.6,1.6-50.4,6.7-73.5,18.7
		c-43.3,22.6-84.7,47.6-117.2,85.3C97.9,195,92,215.1,105.7,232.1c14.3,17.9,30.2,35.4,48.2,49.4c35.4,27.6,73.1,52,102.7,86.8
		c48.2,56.8,38.2,124.3-8.2,164.6c-37.6,32.7-81.4,53.4-131,58.3c-21.6,2.1-44.7,0.8-65.5-4.8c-40.4-10.7-58.8-47.7-49.6-92.5
		c6.4-31,21.7-57.7,40.8-82.5C47.3,406,51.5,400.6,56.6,394.1z"/>
	<rect x="312" y="106.5" class="st0" width="1673.7" height="502.6"/>
	<text transform="matrix(1 0 0 1 312.0032 481.2228)"><tspan x="0" y="0" class="st1 st2 st3">olo</tspan><tspan x="648.9" y="0" class="st1 st2 st4">bu</tspan><tspan x="1226.1" y="0" class="st1 st2 st5">y</tspan></text>
</g>
</svg>
